<?xml version="1.0" encoding="utf-8"?>
<!-- Generator: Adobe Illustrator 19.2.1, SVG Export Plug-In . SVG Version: 6.00 Build 0)  -->
<svg version="1.1" id="Layer_1" xmlns="http://www.w3.org/2000/svg" xmlns:xlink="http://www.w3.org/1999/xlink" x="0px" y="0px"
	 viewBox="0 0 143 38" style="enable-background:new 0 0 143 38;" xml:space="preserve">
<style type="text/css">
	.st0{fill:#FFFFFF;}
</style>
<g>
	<g>
		<rect x="107.9" y="3.5" class="st0" width="1.2" height="21"/>
		<g>
			<path class="st0" d="M120.3,24.5c-0.6-0.5-1.2-1-1.7-1.6c-0.5-0.6-0.9-1.2-1.3-1.9c-0.1,0.3-0.3,0.7-0.5,1
				c-0.2,0.3-0.4,0.6-0.7,0.9c-0.3,0.3-0.5,0.6-0.8,0.8c-0.3,0.3-0.6,0.5-0.9,0.7h-1.8c0.5-0.3,0.9-0.6,1.4-0.9
				c0.5-0.4,0.9-0.7,1.2-1.2c0.4-0.4,0.7-0.9,0.9-1.4c0.3-0.5,0.4-1,0.5-1.6h-3.9v-0.8h4c0-0.2,0-0.4,0-0.6c0-0.2,0-0.4,0-0.7
				c0-0.2,0-0.4,0-0.7c0-0.2,0-0.4,0-0.5h-3.5v-0.7h8v0.7h-3.5c0,0.1,0,0.3,0,0.5c0,0.2,0,0.4,0,0.6c0,0.2,0,0.4,0,0.7
				c0,0.2,0,0.4,0,0.6h4.1v0.8h-4.1c0,0.1,0,0.1,0,0.2c0,0.1,0,0.2,0,0.2h0.2c0.1,0.4,0.3,0.8,0.6,1.3c0.3,0.4,0.6,0.8,0.9,1.3
				c0.4,0.4,0.8,0.8,1.2,1.2c0.4,0.4,0.9,0.7,1.4,1H120.3z"/>
			<path class="st0" d="M127.1,22.4c-0.3,0.1-0.6,0.3-0.9,0.4c-0.3,0.1-0.6,0.2-0.9,0.4c-0.3,0.1-0.5,0.2-0.7,0.3v-0.8
				c0.1,0,0.1,0,0.2-0.1c0.1,0,0.2-0.1,0.3-0.1c0.1,0,0.2-0.1,0.3-0.1c0.1,0,0.2-0.1,0.2-0.1v-3.9h-1v-0.8h1v-2.3h0.9v2.3h1.1v0.8
				h-1.1v3.5c0.1,0,0.2-0.1,0.3-0.1c0.1,0,0.2-0.1,0.4-0.2c0.1-0.1,0.2-0.1,0.4-0.2c0.1-0.1,0.2-0.1,0.3-0.1V22
				C127.6,22.1,127.4,22.2,127.1,22.4z M133.5,24.4h-4.3c-0.2,0-0.5-0.1-0.6-0.3c-0.2-0.2-0.2-0.4-0.2-0.6v-4.2l-0.8,0.2v-0.8
				l0.8-0.2v-2.1h0.9v1.8l1.2-0.3v-2.6h0.9v2.3l1.2-0.4c0.2-0.1,0.5,0,0.7,0.1c0.1,0.1,0.2,0.2,0.2,0.3c0.1,0.1,0.1,0.2,0.1,0.4v3.1
				c0,0.3-0.1,0.5-0.3,0.7c-0.1,0.1-0.2,0.1-0.3,0.2c-0.1,0-0.2,0.1-0.3,0.1h-0.7l-0.3-0.7h0.7c0.1,0,0.1,0,0.2-0.1
				c0,0,0.1-0.1,0.1-0.2v-3c0,0,0-0.1,0-0.1c0,0-0.1,0-0.1,0l-1.2,0.4v4.4h-0.9v-4.1l-1.2,0.4v4.5c0,0.1,0,0.1,0.1,0.2
				c0,0,0.1,0.1,0.2,0.1h4.4L133.5,24.4z"/>
		</g>
		<g>
			<path class="st0" d="M120.5,9.9c0,0-0.1-0.1-0.2-0.2c-0.1-0.1-0.1-0.1-0.2-0.2c-0.1-0.1-0.1-0.1-0.2-0.2
				c-0.1-0.1-0.1-0.1-0.2-0.2c-0.1,0.1-0.2,0.3-0.3,0.4c-0.1,0.2-0.2,0.3-0.3,0.4h-1.3c0.2-0.2,0.4-0.4,0.5-0.6
				c0.2-0.2,0.3-0.4,0.4-0.7h0.5c-0.1-0.2-0.3-0.4-0.4-0.6c-0.1-0.2-0.3-0.4-0.4-0.5h-2.7c-0.2,0.4-0.5,0.8-0.8,1.1h0.5
				c0.1,0.2,0.3,0.4,0.4,0.7c0.2,0.2,0.3,0.4,0.5,0.6h-1.2c-0.1-0.1-0.2-0.3-0.3-0.4c-0.1-0.1-0.2-0.3-0.3-0.4
				c-0.2,0.3-0.5,0.5-0.8,0.8h-1.4c0.4-0.3,0.9-0.7,1.3-1.1c0.4-0.4,0.7-0.8,1-1.2h-2.2V6.9h2.7c0.1-0.1,0.1-0.2,0.2-0.3
				c0.1-0.1,0.1-0.2,0.2-0.3h-2.3V5.5h2.7c0,0,0-0.1,0.1-0.1c0-0.1,0-0.1,0.1-0.2c0-0.1,0-0.1,0.1-0.2c0-0.1,0-0.1,0-0.1h-3.3V4.1
				h3.6c0-0.1,0.1-0.2,0.1-0.3c0-0.1,0-0.2,0.1-0.3h1c0,0.1,0,0.2-0.1,0.3c0,0.1-0.1,0.2-0.1,0.3h4.1v0.8h-4.3
				c0,0.1-0.1,0.2-0.1,0.3c0,0.1-0.1,0.2-0.1,0.3h4.1v0.7h-4.4c0,0.1-0.1,0.2-0.2,0.3c-0.1,0.1-0.1,0.2-0.2,0.3h5.5v0.7h-2.2
				c0.1,0.2,0.3,0.4,0.5,0.6c0.2,0.2,0.4,0.4,0.6,0.6c0.2,0.2,0.4,0.4,0.6,0.6c0.2,0.2,0.4,0.4,0.6,0.5H120.5z M115.6,11.4
				c-0.3,0.4-0.7,0.7-1.1,1h-1.7c0.2-0.1,0.4-0.3,0.7-0.4c0.2-0.2,0.4-0.3,0.6-0.5c0.2-0.2,0.4-0.4,0.6-0.6c0.2-0.2,0.4-0.4,0.5-0.6
				h1.2C116.2,10.6,115.9,11,115.6,11.4z M117.5,12.6c-0.2,0.2-0.4,0.2-0.6,0.2h-1.1l-0.3-0.7h1.1c0.2,0,0.2-0.1,0.2-0.3V8h1V12
				C117.7,12.2,117.7,12.4,117.5,12.6z M120.2,12.4c-0.4-0.3-0.8-0.7-1.1-1c-0.4-0.4-0.7-0.7-1-1.1h1.2c0.3,0.4,0.7,0.8,1.2,1.1
				c0.4,0.4,0.9,0.7,1.3,1H120.2z"/>
			<path class="st0" d="M124.5,12.8v-0.8h4.1V9.4h-3.6V8.7h3.6V6.2h-2.2c0,0.1-0.1,0.3-0.2,0.5c-0.1,0.2-0.1,0.3-0.2,0.5
				c-0.1,0.2-0.1,0.3-0.2,0.4c-0.1,0.1-0.1,0.3-0.2,0.4h-1.2c0.2-0.3,0.4-0.5,0.5-0.9c0.2-0.3,0.3-0.6,0.4-1c0.1-0.3,0.2-0.7,0.3-1
				c0.1-0.3,0.2-0.7,0.2-1h1c0,0.1,0,0.2-0.1,0.3c0,0.1-0.1,0.2-0.1,0.4c0,0.1-0.1,0.2-0.1,0.4c0,0.1-0.1,0.2-0.1,0.3h2v-2h1v2h3.9
				v0.8h-3.9v2.4h3.6v0.8h-3.6v2.7h4.2v0.8H124.5z"/>
		</g>
		<path class="st0" d="M55.3,8.1c-1.3,0-2.5,0.4-3.5,1.2V3.5h-2.3V21c0,0.6-0.5,1.2-1.2,1.2c-0.6,0-1.2-0.5-1.2-1.2v-4.6l0,0
			c0,0,0,0,0,0c0-4.5-3.7-8.2-8.2-8.2c-2.6,0-5,1.3-6.5,3.2c-1-1.9-2.9-3.2-5.2-3.2c-1.9,0-3.6,0.9-4.7,2.3
			c-1.1-1.4-2.8-2.3-4.7-2.3c-3.2,0-5.8,2.6-5.8,5.8v10.5h2.3V14c0-1.9,1.6-3.5,3.5-3.5c1.9,0,3.5,1.6,3.5,3.5v0v10.5h2.3V14v0
			c0-1.9,1.6-3.5,3.5-3.5c1.9,0,3.5,1.6,3.5,3.5v2.4h0c0.1,4.5,3.7,8.1,8.2,8.1c2.3,0,4.5-1,6-2.6c0.4,1.5,1.8,2.6,3.4,2.6
			c1.9,0,3.5-1.6,3.5-3.5v-7c0-1.9,1.6-3.5,3.5-3.5c1.9,0,3.5,1.6,3.5,3.5c0,0.2,0,0.3,0,0.5l0,0c0.3-1.2,0.9-2.3,1.7-3.2
			C59.4,9.4,57.5,8.1,55.3,8.1 M38.9,22.1c-3.2,0-5.8-2.6-5.8-5.8c0-3.2,2.6-5.8,5.8-5.8c3.2,0,5.8,2.6,5.8,5.8
			C44.8,19.5,42.1,22.1,38.9,22.1 M104.3,16.3c0-4.5-3.7-8.2-8.2-8.2c-4.5,0-8.2,3.7-8.2,8.2l0,0c0,3.2-2.6,5.8-5.8,5.8
			c-3.2,0-5.8-2.6-5.8-5.8v-5.8h5.8V8.1h-5.8V5.8H74v10.5h0c0,4.5,3.7,8.1,8.2,8.1c4.1,0,7.5-3.1,8.1-7c0,0,0-0.1,0-0.1
			c0-0.1,0-0.3,0-0.4c0,0,0-0.1,0-0.1c0-0.2,0-0.3,0-0.5l0,0c0-3.2,2.6-5.8,5.8-5.8c3.2,0,5.8,2.6,5.8,5.8c0,3.2-2.6,5.8-5.8,5.8
			c-2.8,0-5.2-2-5.7-4.7c-0.2,1.1-0.6,2.2-1.2,3.2c1.5,2.3,4,3.8,6.9,3.8c2.3,0,4.4-0.9,5.8-2.5v2.5h2.3v-8h0
			C104.3,16.4,104.3,16.4,104.3,16.3"/>
		<path class="st0" d="M66.7,24.5c-4.5,0-8.2-3.7-8.2-8.2c0-4.5,3.7-8.2,8.2-8.2c4.5,0,8.2,3.7,8.2,8.2
			C74.8,20.8,71.2,24.5,66.7,24.5z M66.7,8.6c-4.2,0-7.7,3.4-7.7,7.7c0,4.2,3.4,7.7,7.7,7.7c4.2,0,7.7-3.4,7.7-7.7
			C74.3,12.1,70.9,8.6,66.7,8.6z M66.7,22.2c-3.3,0-5.9-2.7-5.9-5.9c0-3.3,2.7-5.9,5.9-5.9c3.3,0,5.9,2.7,5.9,5.9
			C72.6,19.6,69.9,22.2,66.7,22.2z M66.7,10.9c-3,0-5.4,2.4-5.4,5.4c0,3,2.4,5.4,5.4,5.4c3,0,5.4-2.4,5.4-5.4
			C72.1,13.3,69.6,10.9,66.7,10.9z"/>
		<g>
			<path class="st0" d="M13,3.5v0.7h0.7v0.4H13v1.5c0,0.4,0.1,0.6,0.4,0.6c0.1,0,0.2,0,0.3,0l0,0.4c-0.1,0-0.3,0.1-0.5,0.1
				c-0.2,0-0.4-0.1-0.6-0.2c-0.1-0.2-0.2-0.4-0.2-0.7V4.6h-0.4V4.2h0.4V3.5H13z"/>
			<path class="st0" d="M14.4,3.5h0.5v1.1h0c0.1-0.1,0.2-0.3,0.4-0.4c0.1-0.1,0.3-0.1,0.5-0.1c0.4,0,1,0.2,1,1.2v1.7h-0.5V5.4
				c0-0.5-0.2-0.8-0.6-0.8c-0.3,0-0.6,0.2-0.7,0.5c0,0.1,0,0.2,0,0.2v1.8h-0.5V3.5z"/>
			<path class="st0" d="M17.9,5.7c0,0.7,0.5,1,1,1c0.4,0,0.6-0.1,0.8-0.1l0.1,0.4c-0.2,0.1-0.5,0.2-1,0.2c-0.9,0-1.4-0.6-1.4-1.4
				c0-0.9,0.5-1.5,1.3-1.5c0.9,0,1.2,0.8,1.2,1.3c0,0.1,0,0.2,0,0.2H17.9z M19.4,5.3c0-0.3-0.1-0.8-0.7-0.8c-0.5,0-0.8,0.5-0.8,0.8
				H19.4z"/>
		</g>
	</g>
	<g>
		<path class="st0" d="M12.9,31.3c0,0-0.1,0-0.1,0.1c0,0-0.1,0.1-0.1,0.1v1.2h2.1V33h-2.1v1.9h-0.5v-3.6c0-0.1,0-0.2,0.1-0.3
			c0.1-0.1,0.2-0.1,0.3-0.1h2.5v0.4H12.9z"/>
		<path class="st0" d="M18.9,34.9l-0.5-1.2h-1.8L16,34.9h-0.6l1.7-4h0.5l1.8,4H18.9z M17.4,31.6l-0.7,1.7h1.5L17.4,31.6z"/>
		<path class="st0" d="M22.8,34.9c0-0.1-0.1-0.1-0.1-0.2c-0.1-0.1-0.1-0.2-0.2-0.2c-0.1-0.1-0.1-0.2-0.2-0.3
			c-0.1-0.1-0.1-0.2-0.2-0.3c0-0.1-0.1-0.2-0.2-0.3c-0.1-0.1-0.1-0.2-0.2-0.2c-0.1-0.1-0.2-0.1-0.2-0.2c-0.1-0.1-0.2-0.1-0.3-0.1
			h-0.9v1.9h-0.5v-3.5c0-0.1,0-0.1,0-0.2c0-0.1,0.1-0.1,0.1-0.2c0.1-0.1,0.2-0.2,0.4-0.2h1.7c0.1,0,0.3,0,0.4,0.1
			c0.1,0.1,0.2,0.2,0.3,0.3c0.1,0.1,0.1,0.2,0.2,0.4c0,0.1,0.1,0.3,0,0.4c0,0.1,0,0.2-0.1,0.4c0,0.1-0.1,0.2-0.2,0.3
			C22.6,32.9,22.3,33,22,33c0.1,0.1,0.2,0.2,0.3,0.3c0.1,0.1,0.2,0.2,0.2,0.3c0.1,0.1,0.1,0.2,0.2,0.3s0.2,0.2,0.2,0.3
			c0.1,0.1,0.2,0.2,0.2,0.3c0.1,0.1,0.2,0.2,0.2,0.3H22.8z M22.5,32c0-0.1,0-0.2,0-0.3c0-0.1-0.1-0.2-0.1-0.2
			c-0.1-0.1-0.1-0.1-0.2-0.1c-0.1,0-0.2-0.1-0.2-0.1h-1.5c0,0-0.1,0-0.1,0c0,0-0.1,0.1-0.1,0.1v1.2h1.5c0.1,0,0.2,0,0.3,0
			c0.1,0,0.2-0.1,0.2-0.1c0.1-0.1,0.1-0.1,0.1-0.2C22.5,32.2,22.5,32.1,22.5,32z"/>
		<path class="st0" d="M27.2,34.9v-2.8L26,34.9h-0.4l-1.3-2.8v2.8h-0.5v-4h0.5l1.5,3.3l1.4-3.3h0.5v4H27.2z"/>
		<path class="st0" d="M31.6,35.5v-4.7h0.4v4.7H31.6z"/>
		<path class="st0" d="M39,34.9c0-0.1-0.1-0.1-0.1-0.2c-0.1-0.1-0.1-0.2-0.2-0.2c-0.1-0.1-0.1-0.2-0.2-0.3c-0.1-0.1-0.1-0.2-0.2-0.3
			c0-0.1-0.1-0.2-0.2-0.3c-0.1-0.1-0.1-0.2-0.2-0.2c-0.1-0.1-0.2-0.1-0.2-0.2c-0.1-0.1-0.2-0.1-0.3-0.1h-0.9v1.9H36v-3.5
			c0-0.1,0-0.1,0-0.2c0-0.1,0.1-0.1,0.1-0.2c0.1-0.1,0.2-0.2,0.4-0.2h1.7c0.1,0,0.3,0,0.4,0.1c0.1,0.1,0.2,0.2,0.3,0.3
			c0.1,0.1,0.1,0.2,0.2,0.4c0,0.1,0,0.3,0,0.4c0,0.1,0,0.2-0.1,0.4c0,0.1-0.1,0.2-0.2,0.3c-0.2,0.2-0.5,0.3-0.8,0.3
			c0.1,0.1,0.2,0.2,0.3,0.3c0.1,0.1,0.2,0.2,0.2,0.3c0.1,0.1,0.1,0.2,0.2,0.3s0.2,0.2,0.2,0.3c0.1,0.1,0.2,0.2,0.2,0.3
			c0.1,0.1,0.2,0.2,0.2,0.3H39z M38.7,32c0-0.1,0-0.2,0-0.3c0-0.1-0.1-0.2-0.1-0.2c-0.1-0.1-0.1-0.1-0.2-0.1c-0.1,0-0.2-0.1-0.2-0.1
			h-1.5c0,0-0.1,0-0.1,0c0,0-0.1,0.1-0.1,0.1v1.2h1.5c0.1,0,0.2,0,0.3,0c0.1,0,0.2-0.1,0.2-0.1c0.1-0.1,0.1-0.1,0.1-0.2
			C38.7,32.2,38.7,32.1,38.7,32z"/>
		<path class="st0" d="M40.5,34.9c-0.2,0-0.3-0.1-0.4-0.2C40,34.6,40,34.5,40,34.4v-2.9c0-0.2,0-0.3,0.1-0.4
			c0.1-0.1,0.3-0.2,0.5-0.2H43v0.4h-2.3c0,0-0.1,0-0.1,0c0,0-0.1,0.1-0.1,0.1v1.2h2.3V33h-2.3v1.3c0,0,0,0.1,0.1,0.1
			c0,0,0.1,0,0.1,0H43v0.4H40.5z"/>
		<path class="st0" d="M46.1,32c0-0.1,0-0.2-0.1-0.3c0-0.1-0.1-0.2-0.1-0.2c-0.1-0.1-0.1-0.1-0.2-0.1c-0.1,0-0.2-0.1-0.2-0.1
			c-0.1,0-0.3,0-0.5,0c-0.2,0-0.3,0-0.4,0.1c-0.1,0-0.2,0.1-0.3,0.1c-0.1,0.1-0.1,0.1-0.2,0.2c0,0.1-0.1,0.2-0.1,0.3
			c0,0.1,0,0.2,0.1,0.3c0,0.1,0.1,0.1,0.2,0.2c0.1,0,0.2,0.1,0.3,0.1c0.1,0,0.2,0.1,0.4,0.1c0.1,0,0.2,0.1,0.4,0.1
			c0.1,0,0.2,0.1,0.3,0.1c0.1,0,0.2,0.1,0.3,0.1c0.1,0,0.2,0.1,0.3,0.2c0.1,0.1,0.2,0.2,0.3,0.3c0,0.1,0.1,0.1,0.1,0.2
			c0,0.1,0,0.2,0,0.2c0,0.1,0,0.2,0,0.2c0,0.1,0,0.2-0.1,0.2c0,0.1-0.1,0.2-0.2,0.3c-0.1,0.1-0.2,0.2-0.3,0.2
			c-0.2,0.1-0.4,0.2-0.6,0.2c-0.2,0-0.5,0-0.7,0c-0.2,0-0.4-0.1-0.5-0.1c-0.2-0.1-0.3-0.2-0.5-0.3c-0.1-0.1-0.2-0.3-0.3-0.4
			c-0.1-0.2-0.1-0.3-0.1-0.5h0.5c0,0.1,0.1,0.3,0.1,0.4c0.1,0.1,0.2,0.2,0.3,0.3c0.1,0.1,0.2,0.1,0.4,0.2c0.1,0,0.3,0.1,0.4,0.1
			c0.1,0,0.1,0,0.2,0c0.1,0,0.2,0,0.2,0c0.1,0,0.2,0,0.2-0.1c0.1,0,0.1-0.1,0.2-0.1c0.1-0.1,0.2-0.1,0.2-0.2c0-0.1,0.1-0.2,0.1-0.3
			c0-0.1,0-0.2-0.1-0.3c-0.1-0.1-0.2-0.2-0.3-0.2c-0.1,0-0.1,0-0.2-0.1c-0.1,0-0.2,0-0.3-0.1c-0.1,0-0.2,0-0.3-0.1
			c-0.1,0-0.2,0-0.3,0c-0.2,0-0.3-0.1-0.5-0.1c-0.2-0.1-0.3-0.1-0.4-0.2c-0.1-0.1-0.2-0.3-0.2-0.4c0-0.2,0-0.3,0-0.5
			c0-0.1,0.1-0.3,0.2-0.4c0.1-0.1,0.2-0.2,0.3-0.3c0.1-0.1,0.2-0.1,0.3-0.1c0.1,0,0.3,0,0.4-0.1c0.1,0,0.3,0,0.4,0
			c0.1,0,0.3,0,0.4,0c0.1,0,0.3,0.1,0.4,0.2c0.1,0.1,0.2,0.2,0.3,0.3c0.1,0.1,0.1,0.2,0.2,0.3c0,0.1,0.1,0.2,0.1,0.3H46.1z"/>
		<path class="st0" d="M48.9,31.3v3.6h-0.5v-3.6H47v-0.4h3.3v0.4H48.9z"/>
		<path class="st0" d="M53.9,34.9l-0.5-1.2h-1.8l-0.5,1.2h-0.6l1.7-4h0.5l1.8,4H53.9z M52.5,31.6l-0.7,1.7h1.5L52.5,31.6z"/>
		<path class="st0" d="M58,34.4c-0.1,0.2-0.3,0.3-0.6,0.4c-0.1,0-0.2,0.1-0.4,0.1c-0.1,0-0.3,0-0.5,0c-0.2,0-0.3,0-0.5,0
			c-0.1,0-0.3-0.1-0.4-0.1c-0.2-0.1-0.4-0.2-0.6-0.4c-0.2-0.2-0.2-0.4-0.2-0.7v-2.8h0.5v2.8c0,0.2,0.1,0.3,0.2,0.5
			c0.1,0.2,0.2,0.3,0.4,0.3c0.1,0,0.2,0.1,0.3,0.1c0.1,0,0.2,0,0.3,0c0.1,0,0.2,0,0.3,0c0.1,0,0.2,0,0.3-0.1
			c0.2-0.1,0.4-0.2,0.4-0.4c0.1-0.2,0.1-0.4,0.1-0.6v-2.6h0.5v2.8C58.2,34,58.1,34.2,58,34.4z"/>
		<path class="st0" d="M61.7,34.9c0-0.1-0.1-0.1-0.1-0.2c-0.1-0.1-0.1-0.2-0.2-0.2c-0.1-0.1-0.1-0.2-0.2-0.3
			c-0.1-0.1-0.1-0.2-0.2-0.3c0-0.1-0.1-0.2-0.2-0.3c-0.1-0.1-0.1-0.2-0.2-0.2c-0.1-0.1-0.2-0.1-0.2-0.2c-0.1-0.1-0.2-0.1-0.3-0.1
			h-0.9v1.9h-0.5v-3.5c0-0.1,0-0.1,0-0.2c0-0.1,0.1-0.1,0.1-0.2c0.1-0.1,0.2-0.2,0.4-0.2H61c0.1,0,0.3,0,0.4,0.1
			c0.1,0.1,0.2,0.2,0.3,0.3c0.1,0.1,0.1,0.2,0.2,0.4c0,0.1,0,0.3,0,0.4c0,0.1,0,0.2-0.1,0.4c0,0.1-0.1,0.2-0.2,0.3
			c-0.2,0.2-0.5,0.3-0.8,0.3c0.1,0.1,0.2,0.2,0.3,0.3c0.1,0.1,0.2,0.2,0.2,0.3c0.1,0.1,0.1,0.2,0.2,0.3c0.1,0.1,0.2,0.2,0.2,0.3
			c0.1,0.1,0.2,0.2,0.2,0.3c0.1,0.1,0.2,0.2,0.2,0.3H61.7z M61.4,32c0-0.1,0-0.2,0-0.3c0-0.1-0.1-0.2-0.1-0.2
			c-0.1-0.1-0.1-0.1-0.2-0.1c-0.1,0-0.2-0.1-0.2-0.1h-1.5c0,0-0.1,0-0.1,0c0,0-0.1,0.1-0.1,0.1v1.2h1.5c0.1,0,0.2,0,0.3,0
			c0.1,0,0.2-0.1,0.2-0.1c0.1-0.1,0.1-0.1,0.1-0.2C61.4,32.2,61.4,32.1,61.4,32z"/>
		<path class="st0" d="M65.9,34.9l-0.5-1.2h-1.8l-0.5,1.2h-0.6l1.7-4h0.5l1.8,4H65.9z M64.5,31.6l-0.7,1.7h1.5L64.5,31.6z"/>
		<path class="st0" d="M69.6,34.9l-2.2-3.1v3.1h-0.5v-4h0.5l2.3,3.2v-3.2h0.5v4H69.6z"/>
		<path class="st0" d="M72.5,31.3v3.6H72v-3.6h-1.4v-0.4h3.3v0.4H72.5z"/>
		<path class="st0" d="M77.7,35.5v-4.7h0.4v4.7H77.7z"/>
		<path class="st0" d="M85.6,33.9c-0.1,0.1-0.1,0.2-0.2,0.3c-0.1,0.1-0.2,0.2-0.3,0.3c-0.1,0.1-0.2,0.2-0.3,0.2
			c-0.2,0.1-0.4,0.1-0.6,0.2c-0.2,0-0.4,0-0.6,0c-0.2,0-0.4-0.1-0.6-0.2c-0.2-0.1-0.3-0.2-0.5-0.4c-0.2-0.2-0.3-0.4-0.4-0.6
			c-0.1-0.2-0.1-0.5-0.1-0.8c0-0.2,0-0.4,0-0.6c0-0.2,0.1-0.4,0.2-0.5c0.1-0.2,0.2-0.3,0.3-0.5c0.1-0.1,0.3-0.3,0.5-0.3
			c0.1-0.1,0.3-0.1,0.4-0.2c0.1,0,0.3-0.1,0.5-0.1c0.2,0,0.3,0,0.5,0c0.2,0,0.3,0.1,0.4,0.1c0.2,0.1,0.4,0.2,0.6,0.4
			c0.2,0.2,0.3,0.4,0.4,0.6h-0.6c-0.1-0.2-0.2-0.3-0.3-0.4c-0.1-0.1-0.3-0.2-0.4-0.3c-0.2-0.1-0.3-0.1-0.5-0.1c-0.2,0-0.3,0-0.5,0.1
			c-0.2,0.1-0.3,0.2-0.4,0.3c-0.1,0.1-0.2,0.2-0.3,0.4c-0.1,0.1-0.1,0.3-0.2,0.5c0,0.2,0,0.3,0,0.5c0,0.1,0,0.3,0,0.4
			c0,0.1,0.1,0.3,0.1,0.4c0.1,0.1,0.1,0.2,0.2,0.3c0.1,0.1,0.2,0.2,0.3,0.3c0.1,0.1,0.2,0.1,0.3,0.1c0.1,0,0.2,0,0.3,0
			c0.1,0,0.2,0,0.4,0c0.1,0,0.2-0.1,0.3-0.1c0.1-0.1,0.3-0.2,0.4-0.4c0.1-0.1,0.2-0.3,0.2-0.5h0.6C85.7,33.7,85.6,33.8,85.6,33.9z"
			/>
		<path class="st0" d="M86.6,34.9c-0.1,0-0.2,0-0.3-0.1c-0.1-0.1-0.1-0.2-0.1-0.3v-3.6h0.5v3.4c0,0,0,0.1,0,0.1c0,0,0.1,0,0.1,0h2
			v0.4H86.6z"/>
		<path class="st0" d="M89.5,34.9v-4h0.5v4H89.5z"/>
		<path class="st0" d="M93.6,34.9l-2.2-3.1v3.1h-0.5v-4h0.5l2.3,3.2v-3.2h0.5v4H93.6z"/>
		<path class="st0" d="M94.9,34.9v-4h0.5v4H94.9z"/>
		<path class="st0" d="M99.8,33.9c-0.1,0.1-0.1,0.2-0.2,0.3c-0.1,0.1-0.2,0.2-0.3,0.3c-0.1,0.1-0.2,0.2-0.3,0.2
			c-0.2,0.1-0.4,0.1-0.6,0.2c-0.2,0-0.4,0-0.6,0c-0.2,0-0.4-0.1-0.6-0.2c-0.2-0.1-0.3-0.2-0.5-0.4c-0.2-0.2-0.3-0.4-0.4-0.6
			c-0.1-0.2-0.1-0.5-0.1-0.8c0-0.2,0-0.4,0-0.6c0-0.2,0.1-0.4,0.2-0.5c0.1-0.2,0.2-0.3,0.3-0.5c0.1-0.1,0.3-0.3,0.5-0.3
			c0.1-0.1,0.3-0.1,0.4-0.2c0.1,0,0.3-0.1,0.5-0.1c0.2,0,0.3,0,0.5,0c0.2,0,0.3,0.1,0.4,0.1c0.2,0.1,0.4,0.2,0.6,0.4
			c0.2,0.2,0.3,0.4,0.4,0.6h-0.6c-0.1-0.2-0.2-0.3-0.3-0.4c-0.1-0.1-0.3-0.2-0.4-0.3c-0.2-0.1-0.3-0.1-0.5-0.1c-0.2,0-0.3,0-0.5,0.1
			c-0.2,0.1-0.3,0.2-0.4,0.3c-0.1,0.1-0.2,0.2-0.3,0.4c-0.1,0.1-0.1,0.3-0.2,0.5c0,0.2,0,0.3,0,0.5c0,0.1,0,0.3,0,0.4
			c0,0.1,0.1,0.3,0.1,0.4c0.1,0.1,0.1,0.2,0.2,0.3c0.1,0.1,0.2,0.2,0.3,0.3c0.1,0.1,0.2,0.1,0.3,0.1c0.1,0,0.2,0,0.3,0
			c0.1,0,0.2,0,0.4,0c0.1,0,0.2-0.1,0.3-0.1c0.1-0.1,0.3-0.2,0.4-0.4c0.1-0.1,0.2-0.3,0.2-0.5h0.6C99.9,33.7,99.9,33.8,99.8,33.9z"
			/>
		<path class="st0" d="M103.8,35.5v-4.7h0.4v4.7H103.8z"/>
		<path class="st0" d="M111.7,33.9c-0.1,0.1-0.1,0.2-0.2,0.3c-0.1,0.1-0.2,0.2-0.3,0.3c-0.1,0.1-0.2,0.2-0.3,0.2
			c-0.2,0.1-0.4,0.1-0.6,0.2c-0.2,0-0.4,0-0.6,0c-0.2,0-0.4-0.1-0.6-0.2c-0.2-0.1-0.3-0.2-0.5-0.4c-0.2-0.2-0.3-0.4-0.4-0.6
			c-0.1-0.2-0.1-0.5-0.1-0.8c0-0.2,0-0.4,0-0.6c0-0.2,0.1-0.4,0.2-0.5c0.1-0.2,0.2-0.3,0.3-0.5c0.1-0.1,0.3-0.3,0.5-0.3
			c0.1-0.1,0.3-0.1,0.4-0.2c0.1,0,0.3-0.1,0.5-0.1c0.2,0,0.3,0,0.5,0c0.2,0,0.3,0.1,0.4,0.1c0.2,0.1,0.4,0.2,0.6,0.4
			c0.2,0.2,0.3,0.4,0.4,0.6h-0.6c-0.1-0.2-0.2-0.3-0.3-0.4c-0.1-0.1-0.3-0.2-0.4-0.3c-0.2-0.1-0.3-0.1-0.5-0.1c-0.2,0-0.3,0-0.5,0.1
			c-0.2,0.1-0.3,0.2-0.4,0.3c-0.1,0.1-0.2,0.2-0.3,0.4c-0.1,0.1-0.1,0.3-0.2,0.5c0,0.2,0,0.3,0,0.5c0,0.1,0,0.3,0,0.4
			c0,0.1,0.1,0.3,0.1,0.4c0.1,0.1,0.1,0.2,0.2,0.3c0.1,0.1,0.2,0.2,0.3,0.3c0.1,0.1,0.2,0.1,0.3,0.1c0.1,0,0.2,0,0.4,0
			c0.1,0,0.2,0,0.4,0c0.1,0,0.2-0.1,0.3-0.1c0.1-0.1,0.3-0.2,0.4-0.4c0.1-0.1,0.2-0.3,0.2-0.5h0.6C111.8,33.7,111.8,33.8,111.7,33.9
			z"/>
		<path class="st0" d="M115.4,34.4c-0.1,0.2-0.3,0.3-0.6,0.4c-0.1,0-0.2,0.1-0.4,0.1c-0.1,0-0.3,0-0.5,0c-0.2,0-0.3,0-0.5,0
			c-0.2,0-0.3-0.1-0.4-0.1c-0.2-0.1-0.4-0.2-0.6-0.4c-0.2-0.2-0.2-0.4-0.2-0.7v-2.8h0.5v2.8c0,0.2,0.1,0.3,0.2,0.5
			c0.1,0.2,0.2,0.3,0.4,0.3c0.1,0,0.2,0.1,0.3,0.1c0.1,0,0.2,0,0.3,0c0.1,0,0.2,0,0.3,0c0.1,0,0.2,0,0.3-0.1
			c0.2-0.1,0.4-0.2,0.4-0.4c0.1-0.2,0.1-0.4,0.1-0.6v-2.6h0.5v2.8C115.6,34,115.5,34.2,115.4,34.4z"/>
		<path class="st0" d="M116.5,34.9c-0.1,0-0.2,0-0.3-0.1c-0.1-0.1-0.1-0.2-0.1-0.3v-3.6h0.5v3.4c0,0,0,0.1,0,0.1c0,0,0.1,0,0.1,0h2
			v0.4H116.5z"/>
		<path class="st0" d="M121,31.3v3.6h-0.5v-3.6h-1.4v-0.4h3.3v0.4H121z"/>
		<path class="st0" d="M125.8,34.4c-0.1,0.2-0.3,0.3-0.6,0.4c-0.1,0-0.2,0.1-0.4,0.1c-0.1,0-0.3,0-0.5,0c-0.2,0-0.3,0-0.5,0
			c-0.1,0-0.3-0.1-0.4-0.1c-0.2-0.1-0.4-0.2-0.6-0.4c-0.2-0.2-0.2-0.4-0.2-0.7v-2.8h0.5v2.8c0,0.2,0.1,0.3,0.2,0.5
			c0.1,0.2,0.2,0.3,0.4,0.3c0.1,0,0.2,0.1,0.3,0.1c0.1,0,0.2,0,0.3,0c0.1,0,0.2,0,0.3,0c0.1,0,0.2,0,0.3-0.1
			c0.2-0.1,0.4-0.2,0.4-0.4c0.1-0.2,0.1-0.4,0.1-0.6v-2.6h0.5v2.8C126,34,126,34.2,125.8,34.4z"/>
		<path class="st0" d="M129.5,34.9c0-0.1-0.1-0.1-0.1-0.2c-0.1-0.1-0.1-0.2-0.2-0.2c-0.1-0.1-0.1-0.2-0.2-0.3
			c-0.1-0.1-0.1-0.2-0.2-0.3c0-0.1-0.1-0.2-0.2-0.3c-0.1-0.1-0.1-0.2-0.2-0.2c-0.1-0.1-0.2-0.1-0.2-0.2c-0.1-0.1-0.2-0.1-0.3-0.1
			h-0.9v1.9h-0.5v-3.5c0-0.1,0-0.1,0-0.2c0-0.1,0.1-0.1,0.1-0.2c0.1-0.1,0.2-0.2,0.4-0.2h1.7c0.1,0,0.3,0,0.4,0.1
			c0.1,0.1,0.2,0.2,0.3,0.3c0.1,0.1,0.1,0.2,0.2,0.4c0,0.1,0,0.3,0,0.4c0,0.1,0,0.2-0.1,0.4c0,0.1-0.1,0.2-0.2,0.3
			c-0.2,0.2-0.5,0.3-0.8,0.3c0.1,0.1,0.2,0.2,0.3,0.3c0.1,0.1,0.2,0.2,0.2,0.3c0.1,0.1,0.1,0.2,0.2,0.3c0.1,0.1,0.2,0.2,0.2,0.3
			c0.1,0.1,0.2,0.2,0.2,0.3c0.1,0.1,0.2,0.2,0.2,0.3H129.5z M129.3,32c0-0.1,0-0.2,0-0.3c0-0.1-0.1-0.2-0.1-0.2
			c-0.1-0.1-0.1-0.1-0.2-0.1c-0.1,0-0.2-0.1-0.2-0.1h-1.5c0,0-0.1,0-0.1,0c0,0-0.1,0.1-0.1,0.1v1.2h1.5c0.1,0,0.2,0,0.3,0
			c0.1,0,0.2-0.1,0.2-0.1c0.1-0.1,0.1-0.1,0.1-0.2C129.3,32.2,129.3,32.1,129.3,32z"/>
		<path class="st0" d="M131.1,34.9c-0.2,0-0.3-0.1-0.4-0.2c-0.1-0.1-0.1-0.2-0.1-0.4v-2.9c0-0.2,0-0.3,0.1-0.4
			c0.1-0.1,0.3-0.2,0.5-0.2h2.4v0.4h-2.3c0,0-0.1,0-0.1,0c0,0-0.1,0.1-0.1,0.1v1.2h2.3V33H131v1.3c0,0,0,0.1,0.1,0.1
			c0,0,0.1,0,0.1,0h2.3v0.4H131.1z"/>
	</g>
</g>
</svg>
